<svg id="visual" viewBox="0 0 1920 1080" width="1920" height="1080" xmlns="http://www.w3.org/2000/svg" xmlns:xlink="http://www.w3.org/1999/xlink" version="1.1"><path d="M0 141L45.7 130.3C91.3 119.7 182.7 98.3 274.2 98.3C365.7 98.3 457.3 119.7 548.8 112.3C640.3 105 731.7 69 823 61.8C914.3 54.7 1005.7 76.3 1097 92.7C1188.3 109 1279.7 120 1371.2 109.2C1462.7 98.3 1554.3 65.7 1645.8 56.7C1737.3 47.7 1828.7 62.3 1874.3 69.7L1920 77L1920 0L1874.3 0C1828.7 0 1737.3 0 1645.8 0C1554.3 0 1462.7 0 1371.2 0C1279.7 0 1188.3 0 1097 0C1005.7 0 914.3 0 823 0C731.7 0 640.3 0 548.8 0C457.3 0 365.7 0 274.2 0C182.7 0 91.3 0 45.7 0L0 0Z" fill="#ada0fb"></path><path d="M0 271L45.7 294.3C91.3 317.7 182.7 364.3 274.2 389.5C365.7 414.7 457.3 418.3 548.8 402.2C640.3 386 731.7 350 823 310.5C914.3 271 1005.7 228 1097 215.5C1188.3 203 1279.7 221 1371.2 264.2C1462.7 307.3 1554.3 375.7 1645.8 384.7C1737.3 393.7 1828.7 343.3 1874.3 318.2L1920 293L1920 75L1874.3 67.7C1828.7 60.3 1737.3 45.7 1645.8 54.7C1554.3 63.7 1462.7 96.3 1371.2 107.2C1279.7 118 1188.3 107 1097 90.7C1005.7 74.3 914.3 52.7 823 59.8C731.7 67 640.3 103 548.8 110.3C457.3 117.7 365.7 96.3 274.2 96.3C182.7 96.3 91.3 117.7 45.7 128.3L0 139Z" fill="#a596fa"></path><path d="M0 541L45.7 533.8C91.3 526.7 182.7 512.3 274.2 510.5C365.7 508.7 457.3 519.3 548.8 499.5C640.3 479.7 731.7 429.3 823 438.3C914.3 447.3 1005.7 515.7 1097 535.5C1188.3 555.3 1279.7 526.7 1371.2 542.8C1462.7 559 1554.3 620 1645.8 602C1737.3 584 1828.7 487 1874.3 438.5L1920 390L1920 291L1874.3 316.2C1828.7 341.3 1737.3 391.7 1645.8 382.7C1554.3 373.7 1462.7 305.3 1371.2 262.2C1279.7 219 1188.3 201 1097 213.5C1005.7 226 914.3 269 823 308.5C731.7 348 640.3 384 548.8 400.2C457.3 416.3 365.7 412.7 274.2 387.5C182.7 362.3 91.3 315.7 45.7 292.3L0 269Z" fill="#9c8df9"></path><path d="M0 638L45.7 621.8C91.3 605.7 182.7 573.3 274.2 562.5C365.7 551.7 457.3 562.3 548.8 540.7C640.3 519 731.7 465 823 477.7C914.3 490.3 1005.7 569.7 1097 596.7C1188.3 623.7 1279.7 598.3 1371.2 605.5C1462.7 612.7 1554.3 652.3 1645.8 623.7C1737.3 595 1828.7 498 1874.3 449.5L1920 401L1920 388L1874.3 436.5C1828.7 485 1737.3 582 1645.8 600C1554.3 618 1462.7 557 1371.2 540.8C1279.7 524.7 1188.3 553.3 1097 533.5C1005.7 513.7 914.3 445.3 823 436.3C731.7 427.3 640.3 477.7 548.8 497.5C457.3 517.3 365.7 506.7 274.2 508.5C182.7 510.3 91.3 524.7 45.7 531.8L0 539Z" fill="#9383f8"></path><path d="M0 649L45.7 634.7C91.3 620.3 182.7 591.7 274.2 593.5C365.7 595.3 457.3 627.7 548.8 620.3C640.3 613 731.7 566 823 578.5C914.3 591 1005.7 663 1097 681C1188.3 699 1279.7 663 1371.2 679.3C1462.7 695.7 1554.3 764.3 1645.8 744.7C1737.3 725 1828.7 617 1874.3 563L1920 509L1920 399L1874.3 447.5C1828.7 496 1737.3 593 1645.8 621.7C1554.3 650.3 1462.7 610.7 1371.2 603.5C1279.7 596.3 1188.3 621.7 1097 594.7C1005.7 567.7 914.3 488.3 823 475.7C731.7 463 640.3 517 548.8 538.7C457.3 560.3 365.7 549.7 274.2 560.5C182.7 571.3 91.3 603.7 45.7 619.8L0 636Z" fill="#8b7af7"></path><path d="M0 725L45.7 710.5C91.3 696 182.7 667 274.2 661.5C365.7 656 457.3 674 548.8 668.7C640.3 663.3 731.7 634.7 823 643.7C914.3 652.7 1005.7 699.3 1097 722.7C1188.3 746 1279.7 746 1371.2 762.2C1462.7 778.3 1554.3 810.7 1645.8 792.7C1737.3 774.7 1828.7 706.3 1874.3 672.2L1920 638L1920 507L1874.3 561C1828.7 615 1737.3 723 1645.8 742.7C1554.3 762.3 1462.7 693.7 1371.2 677.3C1279.7 661 1188.3 697 1097 679C1005.7 661 914.3 589 823 576.5C731.7 564 640.3 611 548.8 618.3C457.3 625.7 365.7 593.3 274.2 591.5C182.7 589.7 91.3 618.3 45.7 632.7L0 647Z" fill="#8371f3"></path><path d="M0 822L45.7 798.5C91.3 775 182.7 728 274.2 726.2C365.7 724.3 457.3 767.7 548.8 773.2C640.3 778.7 731.7 746.3 823 748.2C914.3 750 1005.7 786 1097 804C1188.3 822 1279.7 822 1371.2 829.2C1462.7 836.3 1554.3 850.7 1645.8 839.8C1737.3 829 1828.7 793 1874.3 775L1920 757L1920 636L1874.3 670.2C1828.7 704.3 1737.3 772.7 1645.8 790.7C1554.3 808.7 1462.7 776.3 1371.2 760.2C1279.7 744 1188.3 744 1097 720.7C1005.7 697.3 914.3 650.7 823 641.7C731.7 632.7 640.3 661.3 548.8 666.7C457.3 672 365.7 654 274.2 659.5C182.7 665 91.3 694 45.7 708.5L0 723Z" fill="#7c6aee"></path><path d="M0 962L45.7 958.5C91.3 955 182.7 948 274.2 955.2C365.7 962.3 457.3 983.7 548.8 976.3C640.3 969 731.7 933 823 916.8C914.3 900.7 1005.7 904.3 1097 908C1188.3 911.7 1279.7 915.3 1371.2 915.3C1462.7 915.3 1554.3 911.7 1645.8 917C1737.3 922.3 1828.7 936.7 1874.3 943.8L1920 951L1920 755L1874.3 773C1828.7 791 1737.3 827 1645.8 837.8C1554.3 848.7 1462.7 834.3 1371.2 827.2C1279.7 820 1188.3 820 1097 802C1005.7 784 914.3 748 823 746.2C731.7 744.3 640.3 776.7 548.8 771.2C457.3 765.7 365.7 722.3 274.2 724.2C182.7 726 91.3 773 45.7 796.5L0 820Z" fill="#7563e8"></path><path d="M0 1005L45.7 999.7C91.3 994.3 182.7 983.7 274.2 992.7C365.7 1001.7 457.3 1030.3 548.8 1032.2C640.3 1034 731.7 1009 823 1000C914.3 991 1005.7 998 1097 996.2C1188.3 994.3 1279.7 983.7 1371.2 978.3C1462.7 973 1554.3 973 1645.8 971.2C1737.3 969.3 1828.7 965.7 1874.3 963.8L1920 962L1920 949L1874.3 941.8C1828.7 934.7 1737.3 920.3 1645.8 915C1554.3 909.7 1462.7 913.3 1371.2 913.3C1279.7 913.3 1188.3 909.7 1097 906C1005.7 902.3 914.3 898.7 823 914.8C731.7 931 640.3 967 548.8 974.3C457.3 981.7 365.7 960.3 274.2 953.2C182.7 946 91.3 953 45.7 956.5L0 960Z" fill="#6f5be3"></path><path d="M0 1081L45.7 1081C91.3 1081 182.7 1081 274.2 1081C365.7 1081 457.3 1081 548.8 1081C640.3 1081 731.7 1081 823 1081C914.3 1081 1005.7 1081 1097 1081C1188.3 1081 1279.7 1081 1371.2 1081C1462.7 1081 1554.3 1081 1645.8 1081C1737.3 1081 1828.7 1081 1874.3 1081L1920 1081L1920 960L1874.3 961.8C1828.7 963.7 1737.3 967.3 1645.8 969.2C1554.3 971 1462.7 971 1371.2 976.3C1279.7 981.7 1188.3 992.3 1097 994.2C1005.7 996 914.3 989 823 998C731.7 1007 640.3 1032 548.8 1030.2C457.3 1028.3 365.7 999.7 274.2 990.7C182.7 981.7 91.3 992.3 45.7 997.7L0 1003Z" fill="#6854dd"></path></svg>